<svg width="31" height="37" viewBox="0 0 31 37" fill="none" xmlns="http://www.w3.org/2000/svg">
<path d="M0.638306 0.074894C0.640213 0.206226 3.15086 33.1215 3.1604 33.1318C3.16612 33.1379 6.00872 34.0018 9.47707 35.0504L15.7861 36.9568L21.9139 35.0484C25.285 33.9977 28.0436 33.1379 28.0455 33.1359C28.0532 33.1256 30.7088 0.10157 30.7031 0.095417C30.6993 0.0913124 24.913 0.0789986 17.8465 0.0646324C10.7801 0.0523224 4.01699 0.0359039 2.8189 0.0297508L0.638306 0.0153847V0.074894ZM25.1152 9.03835V10.996L24.892 11.0966C24.768 11.152 22.8068 12.0282 20.5308 13.044L16.3966 14.8888L20.3934 14.895L24.3902 14.8991L24.3807 14.9771C24.375 15.0181 24.1556 17.8233 23.8923 21.2092C23.629 24.5951 23.4134 27.3675 23.4115 27.3695C23.3982 27.3818 15.8338 29.9613 15.8071 29.9613C15.7842 29.9613 7.8917 27.6055 7.87453 27.5932C7.87262 27.5912 7.76388 26.2019 7.63224 24.5028C7.50061 22.8037 7.38805 21.3652 7.38232 21.3057L7.37088 21.1989L9.22715 21.203L11.0834 21.2092L11.236 22.7318C11.3219 23.5691 11.3944 24.2586 11.4001 24.2647C11.4039 24.2709 12.3101 24.5233 13.4128 24.827L15.4179 25.3811L15.6068 25.338C15.7117 25.3154 16.7038 25.1061 17.8122 24.8722C18.9225 24.6382 19.8344 24.4453 19.8382 24.4392C19.8421 24.4351 19.9527 23.2243 20.0824 21.7468L20.319 19.0648H13.7639H7.21062L6.95116 17.1276L6.69171 15.1905L6.74131 15.1658C6.76802 15.1515 8.75211 14.2363 11.1502 13.1302C13.5483 12.0241 15.5171 11.1109 15.5286 11.1007C15.5381 11.0904 13.6265 11.0822 11.0491 11.0822H6.55244L6.5429 11.035C6.53336 10.9817 6.03733 7.13403 6.03733 7.10325C6.03733 7.08683 8.90092 7.08068 15.5763 7.08068H25.1152V9.03835Z" fill="#FF5252"/>
</svg>
