<svg width="35" height="38" viewBox="0 0 35 38" fill="none" xmlns="http://www.w3.org/2000/svg">
<g clip-path="url(#clip0_142_43)">
<path d="M17.9681 37.0572C17.7877 37.0727 17.6326 37.0727 17.4485 37.0727C14.3553 36.4632 11.4169 35.3426 8.40935 34.5031C7.57673 34.2707 6.75 34.0134 5.92234 33.7605C5.64009 33.6742 5.51402 33.5185 5.48582 33.2003C5.34334 31.5921 5.22787 29.9813 5.08676 28.3732C4.96097 26.9398 4.84724 25.5051 4.7263 24.0713C4.62602 22.8824 4.535 21.6922 4.43635 20.503C4.31641 19.0573 4.19525 17.6116 4.0779 16.1657C3.98042 14.9646 3.87455 13.7643 3.78281 12.5627C3.69464 11.4078 3.59957 10.2533 3.49902 9.09954C3.39542 7.91081 3.30296 6.72105 3.2023 5.53207C3.09671 4.28486 2.99568 3.03715 2.89525 1.78942C2.8759 1.54897 2.81785 1.29725 3.00892 1.0611C12.7767 1.03864 22.5241 1.03864 32.3022 1.03864C32.5407 1.2296 32.494 1.4876 32.4739 1.72715C32.3208 3.54568 32.1806 5.36547 32.0247 7.18367C31.8548 9.16512 31.6903 11.1472 31.5281 13.1293C31.3868 14.8549 31.2477 16.581 31.1067 18.3067C30.9447 20.2889 30.7772 22.2707 30.6113 24.2525C30.4679 25.9662 30.3344 27.6811 30.1931 29.3951C30.0864 30.6893 29.9907 31.9848 29.8664 33.2775C29.8413 33.5379 29.7229 33.667 29.4946 33.7387C28.0412 34.1947 26.5792 34.6173 25.1222 35.0591C23.1514 35.6566 21.1782 36.2449 19.2065 36.8387C18.8091 36.9584 18.3984 36.9779 17.9681 37.0572Z" fill="#FF5252"/>
<path d="M19.8397 15.7201C21.8673 15.7201 23.8622 15.7255 25.8571 15.7137C26.125 15.7121 26.2151 15.773 26.1885 16.0788C25.9945 18.3081 25.8151 20.5389 25.63 22.7691C25.4954 24.3921 25.3531 26.0145 25.23 27.6385C25.2112 27.8874 25.1182 27.9653 24.9106 28.0267C22.5819 28.7161 20.2557 29.4156 17.9305 30.1189C17.7548 30.172 17.5984 30.174 17.4221 30.1205C15.0974 29.4157 12.7717 28.7142 10.443 28.025C10.2281 27.9615 10.1487 27.8699 10.1298 27.6301C9.97714 25.6911 9.81359 23.7531 9.64472 21.8156C9.62531 21.593 9.68425 21.5335 9.88746 21.5353C10.9448 21.5446 12.0023 21.5485 13.0595 21.5329C13.295 21.5294 13.33 21.6499 13.3452 21.8445C13.4154 22.744 13.4999 23.6425 13.5549 24.543C13.5698 24.7876 13.6507 24.8862 13.8618 24.9462C15.0609 25.2872 16.2572 25.6399 17.4533 25.9931C17.6062 26.0382 17.749 26.0369 17.9017 25.9918C19.0979 25.6389 20.2937 25.2842 21.4941 24.9482C21.7301 24.8821 21.7892 24.7583 21.8077 24.5134C21.9187 23.0413 22.0399 21.5698 22.1766 20.1002C22.2055 19.7902 22.1648 19.6847 21.8412 19.6857C17.8406 19.6988 13.8399 19.6903 9.83925 19.7022C9.53922 19.7031 9.46159 19.6049 9.43746 19.2979C9.21435 16.4594 8.9755 13.6223 8.74217 10.7848C8.66727 9.87394 8.60524 8.96168 8.5161 8.05248C8.48626 7.74814 8.54453 7.65187 8.84947 7.65556C10.3645 7.67386 11.8799 7.6639 13.3951 7.6639C17.7555 7.6639 22.1159 7.66816 26.4762 7.65534C26.8043 7.65437 26.8765 7.74816 26.8442 8.08524C26.738 9.19291 26.6562 10.3033 26.5722 11.4133C26.5587 11.5921 26.495 11.6677 26.3291 11.6516C26.2426 11.6433 26.1548 11.6504 26.0676 11.6504C21.6745 11.6504 17.2814 11.6544 12.8883 11.6421C12.5642 11.6412 12.4893 11.7246 12.5241 12.0686C12.6336 13.1522 12.7178 14.2391 12.7946 15.3261C12.8157 15.6262 12.9008 15.7308 13.2012 15.7287C15.4031 15.7128 17.6051 15.7201 19.8397 15.7201Z" fill="#2F2F2F"/>
</g>
<defs>
<clipPath id="clip0_142_43">
<rect width="33.4898" height="36.034" fill="white" transform="translate(0.87085 0.96833)"/>
</clipPath>
</defs>
</svg>
