<svg width="34" height="36" viewBox="0 0 34 36" fill="none" xmlns="http://www.w3.org/2000/svg">
<g clip-path="url(#clip0_142_16)">
<rect x="0.703979" y="0.5" width="35" height="35" fill="#FF5252"/>
<path d="M24.2376 12.925C21.9479 13.2835 20.3408 14.9505 20.0143 17.3021C19.8277 18.685 20.133 20.1937 20.8454 21.3579C21.456 22.3543 22.6348 23.2111 24.7889 24.2169C26.4087 24.9759 26.9557 25.3065 27.3458 25.7722C27.6681 26.154 27.7359 26.3589 27.7359 26.9642C27.7359 27.4299 27.7232 27.4997 27.6172 27.7419C27.2568 28.5428 26.3027 28.9898 25.0645 28.9293C24.3267 28.892 23.7415 28.6778 23.1563 28.2215C22.8383 27.9747 22.3337 27.3973 22.0369 26.9317L21.8037 26.5731L21.5662 26.7221C21.439 26.8059 20.7818 27.2157 20.116 27.6394L18.899 28.4078L19.0687 28.757C19.4206 29.4834 20.3492 30.5963 20.9938 31.0666C21.8842 31.7185 22.991 32.1609 24.1952 32.3471C24.8313 32.4496 26.2221 32.4263 26.8242 32.3052C29.1437 31.8396 30.6406 30.5358 31.1706 28.5055C31.4589 27.3973 31.3911 25.8793 31.0052 24.7431C30.4752 23.1878 29.0716 21.9166 26.6462 20.8037C24.8779 19.9842 24.403 19.7188 24.0087 19.309C23.7034 18.9877 23.6101 18.7875 23.5337 18.3079C23.3768 17.3393 23.8263 16.6082 24.7253 16.3475C25.7811 16.0448 26.8115 16.6176 27.4815 17.8795C27.5197 17.9493 27.6893 17.8422 28.8596 17.0227C29.5932 16.5012 30.2208 16.0541 30.2504 16.0262C30.3564 15.9144 29.5211 14.7131 28.9614 14.1776C28.0794 13.3254 26.9811 12.9157 25.4461 12.8598C24.9543 12.8412 24.6786 12.8598 24.2376 12.925Z" fill="#2F2F2F"/>
<path d="M13.4452 20.643C13.4327 27.9894 13.4411 27.6988 13.2068 28.1906C12.8553 28.9284 11.9307 29.2503 10.9559 28.9776C10.4831 28.8434 9.95599 28.3247 9.54598 27.5915C9.4121 27.3545 9.28659 27.1622 9.26567 27.1622C9.2071 27.1622 6.49603 28.9463 6.45419 29.0133C6.40398 29.0893 6.79726 29.8048 7.13196 30.2564C7.80554 31.1551 8.60045 31.7453 9.62547 32.103C10.3493 32.3534 10.7718 32.416 11.7425 32.4115C12.7507 32.4115 13.3657 32.3132 13.9808 32.0494C15.8593 31.2535 16.8215 29.7198 16.9638 27.2963C16.9805 26.9655 16.9889 23.8087 16.9805 20.2853L16.9638 13.8824H15.2108H13.462L13.4452 20.643Z" fill="#2F2F2F"/>
</g>
<defs>
<clipPath id="clip0_142_16">
<rect width="32.5595" height="35" fill="white" transform="translate(0.703979 0.5)"/>
</clipPath>
</defs>
</svg>
