<svg width="37" height="40" viewBox="0 0 37 40" fill="none" xmlns="http://www.w3.org/2000/svg">
<g clip-path="url(#clip0_142_23)">
<path d="M18.1443 0.503666C17.0283 0.556984 16.1549 0.667435 15.1505 0.882618C12.1974 1.51865 9.39483 2.97354 7.08123 5.07017C6.51081 5.58813 5.62682 6.51553 5.16623 7.0811C3.40711 9.23867 2.15465 11.6457 1.40176 14.3174C0.168786 18.6783 0.402626 23.4333 2.05368 27.5999C2.84023 29.588 3.88719 31.3552 5.24594 32.9986C5.68528 33.5299 6.50903 34.3906 7.06352 34.8953C11.014 38.4982 16.2789 40.0997 21.4535 39.2713C24.7627 38.7419 27.8965 37.2166 30.4475 34.8953C31.0038 34.3887 31.8417 33.5146 32.2828 32.9795C34.8161 29.9155 36.3626 26.1945 36.7789 22.1631C36.8622 21.3633 36.8852 20.9044 36.8852 19.9922C36.8852 19.0801 36.8622 18.6211 36.7789 17.8213C36.3998 14.1518 35.0676 10.6974 32.9205 7.81426C32.2562 6.92114 31.3527 5.91948 30.5449 5.1749C27.5369 2.41177 23.8592 0.810257 19.8716 0.530323C19.5739 0.509377 18.403 0.492237 18.1443 0.503666ZM9.3346 11.9504C9.3718 11.998 14.6491 20.8854 14.7962 21.15C14.8617 21.2681 14.9202 21.3614 14.9237 21.3557C14.929 21.35 14.9237 21.2491 14.9131 21.131C14.8635 20.6016 14.8582 20.1332 14.8582 16.1113V11.9371H15.4694H16.0805V17.4881V23.0391H15.3329H14.5836L11.9175 18.5907C10.4507 16.1456 9.20882 14.0642 9.15745 13.9689C9.10607 13.8718 9.03876 13.7271 9.00864 13.6452C8.94487 13.4795 8.89704 13.4453 8.91475 13.5786C8.95372 13.8947 8.95904 14.4926 8.95904 18.5945V23.0391H8.35672H7.75441V17.4786V11.918H8.53033C9.24957 11.918 9.3098 11.9199 9.3346 11.9504ZM32.3607 12.5179V13.1177H30.8638H29.3669V18.0784V23.0391H28.7557H28.1445V18.0784V13.1177L26.6618 13.1139L25.1772 13.1082L25.1719 12.5369C25.1702 12.2227 25.1719 11.9561 25.1772 11.9428C25.1826 11.9237 25.9018 11.918 28.7734 11.918H32.3607V12.5179ZM23.9956 12.5217L23.9903 13.1082L21.9938 13.1139L19.9956 13.1177V14.9554V16.793H21.8557H23.7157V17.3834V17.9737H21.8557H19.9956V19.897V21.8204H22.132H24.2702L24.2596 21.9765C24.2525 22.0641 24.2472 22.3383 24.2472 22.5859V23.0391H21.5014H18.7555V17.4881V11.9371H21.3774H23.9992L23.9956 12.5217ZM5.13788 21.5309C5.29909 21.6109 5.4603 21.7842 5.54179 21.9632C5.60025 22.0927 5.60202 22.1041 5.60202 22.325C5.60202 22.5421 5.59848 22.5592 5.5471 22.6773C5.34869 23.1229 4.87038 23.3171 4.47534 23.1115C4.14583 22.9401 3.97045 22.5897 4.02006 22.2012C4.05903 21.8927 4.2787 21.6033 4.55505 21.4947C4.62592 21.4662 4.68615 21.4604 4.83141 21.4643C4.9997 21.4681 5.02982 21.4757 5.13788 21.5309ZM14.8954 25.6689C15.0017 25.688 15.1664 25.7337 15.2603 25.768L15.4339 25.8289L15.4392 26.1374C15.441 26.3088 15.4392 26.4478 15.4339 26.4478C15.4286 26.4478 15.3701 26.4192 15.3046 26.3831C14.8458 26.1355 14.2045 26.0746 13.735 26.2307C13.1434 26.4307 12.7005 26.9543 12.5251 27.6627C12.4844 27.8265 12.4773 27.8932 12.4702 28.2493C12.4631 28.6911 12.4808 28.8644 12.5676 29.1195C12.7643 29.708 13.115 30.0964 13.6093 30.2735C13.8254 30.3516 14.038 30.3783 14.3126 30.3649C14.6828 30.3459 14.9875 30.264 15.2887 30.1021L15.4251 30.0279V30.3135V30.6011L15.3418 30.6392C14.9326 30.8315 14.4578 30.921 13.9724 30.8962C13.5047 30.8734 13.1859 30.7648 12.8227 30.502C12.3763 30.1821 12.0539 29.6489 11.9157 29.0015C11.8679 28.7844 11.8501 28.1883 11.882 27.9198C11.9812 27.061 12.4489 26.3069 13.1256 25.9165C13.379 25.768 13.7156 25.6594 14.0079 25.629C14.2293 25.6042 14.6722 25.6251 14.8954 25.6689ZM18.3481 27.1048C18.8707 27.2876 19.1895 27.657 19.3702 28.2854C19.4181 28.453 19.4198 28.4664 19.4181 28.9234C19.4181 29.3785 19.4163 29.3937 19.3702 29.5594C19.1736 30.2412 18.752 30.6925 18.1603 30.8505C17.9566 30.9039 17.5403 30.9096 17.3489 30.8601C16.8777 30.7344 16.511 30.4278 16.2842 29.965C16.1248 29.6394 16.0717 29.3499 16.0858 28.8796C16.0965 28.5102 16.1425 28.2912 16.2665 28.0169C16.4348 27.6418 16.6545 27.4038 16.9946 27.2229C17.2781 27.0705 17.4428 27.0381 17.8609 27.0458C18.1727 27.0496 18.2081 27.0553 18.3481 27.1048ZM24.3322 27.0876C24.4066 27.1048 24.5324 27.1505 24.6104 27.1886C24.8867 27.3295 25.0586 27.5104 25.2003 27.8094C25.3473 28.1236 25.3987 28.3883 25.3987 28.8301V29.1329H24.2011H23.0018L23.0125 29.2985C23.0284 29.5861 23.1471 29.9003 23.3083 30.0793C23.3986 30.1783 23.5581 30.285 23.6945 30.3364C23.799 30.3745 23.8468 30.3802 24.0878 30.3802C24.2933 30.3802 24.3907 30.3707 24.4775 30.3459C24.6688 30.2907 24.8584 30.2012 25.009 30.0945L25.1524 29.9936L25.1471 30.2716L25.1418 30.5497L25.0267 30.622C24.8903 30.7077 24.6989 30.7896 24.5129 30.8391C24.4031 30.8696 24.3145 30.8753 23.9992 30.8753C23.5652 30.8753 23.4731 30.8562 23.2197 30.7096C22.9133 30.5344 22.7166 30.2907 22.559 29.8984C22.3464 29.3633 22.3588 28.5806 22.5926 28.0493C22.8176 27.5333 23.2073 27.1886 23.6803 27.0857C23.8433 27.0496 24.1675 27.0515 24.3322 27.0876ZM22.008 27.1162L22.086 27.1372V27.4399C22.086 27.6075 22.0824 27.7427 22.0771 27.7427C22.0718 27.7427 22.0488 27.7294 22.0275 27.7161C21.9708 27.6761 21.7919 27.6285 21.6962 27.6285C21.512 27.6285 21.2976 27.7313 21.1736 27.8798C21.0461 28.0322 20.9221 28.3464 20.8813 28.6187C20.8707 28.6911 20.8636 29.1671 20.8636 29.7746V30.8086H20.5802H20.2967V28.9805V27.1524H20.5802H20.8636V27.518V27.8855L20.9079 27.7732C21.0248 27.4647 21.248 27.2267 21.5102 27.1295C21.6147 27.0915 21.8858 27.0838 22.008 27.1162Z" fill="#FF5252"/>
<path d="M17.4711 27.5999C17.1452 27.697 16.8989 27.9427 16.7608 28.3102C16.6704 28.5501 16.6562 28.6454 16.6562 28.9996C16.658 29.3861 16.674 29.4794 16.7997 29.7594C16.9415 30.0736 17.1895 30.2926 17.4977 30.3726C17.6412 30.4106 17.9778 30.4049 18.1089 30.363C18.3906 30.2735 18.5783 30.1021 18.7077 29.8184C18.8423 29.5251 18.8671 29.3937 18.8671 28.99C18.8671 28.5863 18.8405 28.453 18.7094 28.1617C18.5748 27.8684 18.3658 27.6799 18.0823 27.5999C17.9583 27.5637 17.5934 27.5656 17.4711 27.5999Z" fill="#FF5252"/>
<path d="M23.7883 27.6018C23.7245 27.6151 23.6289 27.6513 23.5757 27.678C23.4446 27.7465 23.2445 27.9636 23.1577 28.1293C23.0868 28.2664 23.0071 28.5121 23.0071 28.5901V28.6377H23.9212H24.8371L24.8247 28.4968C24.8016 28.2302 24.7006 27.9636 24.566 27.817C24.5217 27.7694 24.4331 27.7027 24.3711 27.6704C24.1816 27.5713 24.0062 27.5504 23.7883 27.6018Z" fill="#FF5252"/>
</g>
<defs>
<clipPath id="clip0_142_23">
<rect width="36.2806" height="39" fill="white" transform="translate(0.620728 0.5)"/>
</clipPath>
</defs>
</svg>
