<svg width="30" height="36" viewBox="0 0 30 36" fill="none" xmlns="http://www.w3.org/2000/svg">
<path d="M0.883554 5.97331C0.896258 8.74957 0.93437 10.8147 0.997891 10.5822C1.22657 9.52911 1.65851 9.09148 3.53872 7.929C4.05959 7.61445 4.66939 7.24519 4.87266 7.10843C5.08863 6.97167 5.80006 6.53403 6.46068 6.12374C7.12129 5.71346 9.16666 4.44157 10.9961 3.30645C12.8255 2.17133 14.5024 1.18664 14.7438 1.10458C15.0233 1.02253 12.8001 0.981499 8.02329 0.967823L0.87085 0.954147L0.883554 5.97331Z" fill="#FF5252"/>
<path d="M15.7982 1.07722C16.0142 1.13193 17.6911 2.11661 19.5459 3.27909C24.7165 6.49299 26.1267 7.36827 27.232 8.05208C28.9851 9.1325 29.29 9.44705 29.5949 10.5275C29.6457 10.7189 29.6966 8.64016 29.6966 5.90492L29.7093 0.954138L22.5695 0.967815C18.6312 0.981491 15.5949 1.02252 15.7982 1.07722Z" fill="#FF5252"/>
<path d="M14.9089 3.26542C14.8327 3.3338 14.5278 3.53895 14.2102 3.73041C13.8926 3.9082 12.8763 4.53731 11.9616 5.11171C11.0342 5.68611 9.53508 6.61609 8.62038 7.17681C7.71839 7.73754 6.232 8.65384 5.3173 9.21456C4.41531 9.77529 3.50061 10.3634 3.28464 10.5275L2.90351 10.8147V18.4597V26.091L4.085 26.8432C6.30823 28.2655 6.94344 28.58 7.60405 28.58C8.3536 28.58 8.79824 28.3886 9.09044 27.9099C9.30641 27.5817 9.31911 26.9115 9.38263 19.8273L9.44615 12.1002L10.4371 12.0592L11.4153 12.0182V19.8273C11.4153 28.1561 11.3899 28.539 10.7928 29.4006C10.1195 30.399 9.34452 30.7682 7.98518 30.7682C6.86721 30.7682 6.24471 30.5494 4.60587 29.5921C1.58228 27.8142 1.25197 27.5133 0.985187 26.3371C0.93437 26.1047 0.896258 28.1698 0.883554 30.9323L0.87085 35.9652H15.2901H29.7093L29.6966 31.0007C29.6966 28.1834 29.6458 26.2141 29.5822 26.4192C29.4044 27.062 28.9724 27.7048 28.477 28.0603C28.045 28.3612 27.6004 28.6484 25.5804 29.8793C25.3009 30.0571 24.5641 30.5084 23.9289 30.905C23.3064 31.3016 22.5568 31.7666 22.2774 31.9307C21.9979 32.1085 21.261 32.5598 20.6258 32.9564C20.0033 33.353 19.2792 33.7907 19.0378 33.9411C18.7964 34.0915 18.2755 34.4198 17.8817 34.6796C15.7728 36.0472 15.2265 36.1019 13.5496 35.0899C10.5006 33.271 9.50968 32.5461 10.0432 32.5461C10.1322 32.5461 10.5641 32.3547 11.0088 32.1222C11.8091 31.7119 12.1394 31.6982 12.5587 32.0538C12.8128 32.2863 15.1757 33.777 15.2647 33.777C15.3155 33.777 15.849 33.4488 16.4716 33.0522C17.0941 32.6692 18.301 31.9034 19.1521 31.3837C20.0033 30.8503 21.3881 29.9887 22.2519 29.4553C23.1031 28.9219 24.6276 27.9783 25.644 27.3355C26.6603 26.7064 27.5242 26.132 27.575 26.0499C27.6258 25.9816 27.6639 22.4941 27.6385 18.3229L27.6131 10.7463L26.6603 10.1309C26.1394 9.80264 24.9071 9.03677 23.9289 8.43502C21.6167 7.0127 21.5913 6.99902 20.2447 6.1511C19.6222 5.75449 18.8726 5.30317 18.5931 5.12538C18.3137 4.96127 17.4752 4.44157 16.7383 3.97658C15.379 3.14234 15.1249 3.03293 14.9089 3.26542ZM20.8037 11.8267C22.6585 12.2507 23.6748 13.1396 24.1322 14.7944C24.5133 16.1347 24.4879 16.1894 23.3953 16.2441L22.4806 16.2852L22.1122 15.4099C21.6803 14.3842 21.261 14.0559 20.0795 13.8098C18.9616 13.5636 17.0941 13.6867 16.3445 14.0559C15.3917 14.5072 15.036 15.6697 15.6458 16.3262C16.0015 16.7091 17.6276 17.1467 19.4824 17.3656C20.8164 17.5297 22.5314 17.9536 23.1412 18.2819C23.751 18.6101 24.4752 19.417 24.6403 19.923C24.7165 20.1965 24.7928 20.853 24.7801 21.3727C24.7801 23.1916 23.751 24.5456 21.9597 25.161C18.8091 26.2414 14.8581 25.5029 13.4988 23.5882C13.1177 23.0412 12.8128 22.0428 12.8128 21.3043V20.7846H13.8164H14.82L14.9089 21.3043C15.036 22.1796 15.4171 22.6856 16.2175 23.0822C16.8527 23.3968 17.1322 23.4515 18.6059 23.4925C21.0959 23.5746 22.2901 23.0959 22.595 21.8924C22.9507 20.4701 21.9725 19.8546 18.7837 19.4854C15.3663 19.0888 13.9815 18.4323 13.3971 16.9279C12.9652 15.8338 13.2574 14.0012 13.9942 13.1533C14.4516 12.6336 15.6204 11.9772 16.4334 11.813C17.526 11.5805 19.7492 11.5805 20.8037 11.8267Z" fill="#FF5252"/>
</svg>
