<svg width="33" height="40" viewBox="0 0 33 40" fill="none" xmlns="http://www.w3.org/2000/svg">
<g clip-path="url(#clip0_142_37)">
<path d="M32.25 6.59375V10.25C32.25 13.6168 25.1687 16.3438 16.4354 16.3438C7.70201 16.3438 0.620728 13.6168 0.620728 10.25V6.59375C0.620728 3.22695 7.70201 0.5 16.4354 0.5C25.1687 0.5 32.25 3.22695 32.25 6.59375ZM28.381 16.8541C29.8495 16.2904 31.198 15.5668 32.25 14.6756V22.4375C32.25 25.8043 25.1687 28.5312 16.4354 28.5312C7.70201 28.5312 0.620728 25.8043 0.620728 22.4375V14.6756C1.67268 15.5744 3.02116 16.2904 4.48966 16.8541C7.65965 18.0729 11.8816 18.7812 16.4354 18.7812C20.9891 18.7812 25.2111 18.0729 28.381 16.8541ZM0.620728 26.8631C1.67268 27.7619 3.02116 28.4779 4.48966 29.0416C7.65965 30.2604 11.8816 30.9688 16.4354 30.9688C20.9891 30.9688 25.2111 30.2604 28.381 29.0416C29.8495 28.4779 31.198 27.7543 32.25 26.8631V33.4062C32.25 36.773 25.1687 39.5 16.4354 39.5C7.70201 39.5 0.620728 36.773 0.620728 33.4062V26.8631Z" fill="#FF5252"/>
</g>
<defs>
<clipPath id="clip0_142_37">
<rect width="31.6292" height="39" fill="white" transform="translate(0.620728 0.5)"/>
</clipPath>
</defs>
</svg>
