<svg width="33" height="39" viewBox="0 0 33 39" fill="none" xmlns="http://www.w3.org/2000/svg">
<path d="M15.5539 0.344532C15.2915 0.43301 13.1688 1.67168 10.8434 3.09995C8.51794 4.52822 5.47698 6.38623 4.08172 7.23308C2.44795 8.23161 1.41045 8.93942 1.13617 9.26805C0.325243 10.216 0.337168 10.1275 0.372944 19.6451L0.40872 28.1642L0.671077 28.7456C0.826107 29.0616 1.08846 29.466 1.26734 29.643C1.60125 29.9843 14.5999 37.9598 15.375 38.3011C16.0667 38.6171 17.0565 38.5412 17.9032 38.1115C19.4296 37.3405 31.0807 30.1359 31.6173 29.6304C32.5952 28.7077 32.5594 29.1248 32.5236 19.1143L32.4878 10.3424L32.1539 9.74835C31.9751 9.41973 31.6054 8.98998 31.3192 8.78775C30.222 7.99146 18.0224 0.609962 17.4619 0.395092C16.7583 0.1423 16.2098 0.117023 15.5539 0.344532ZM19.37 8.37064C20.3717 8.68663 21.7312 9.35653 22.4944 9.91267C23.8301 10.8733 25.9408 13.4138 25.6666 13.7045C25.595 13.7804 24.5337 14.4503 23.2934 15.2086L21.0515 16.5863L20.8487 16.2451C19.9305 14.7283 18.2967 13.8056 16.5437 13.793C14.9695 13.793 13.6339 14.3871 12.6203 15.5625C11.5589 16.8012 11.1296 18.0525 11.2369 19.721C11.4158 22.8176 13.8724 25.1054 16.806 24.9032C18.3802 24.8021 19.7993 23.9931 20.6818 22.7039C20.8845 22.4132 21.0872 22.173 21.1469 22.173C21.29 22.1604 25.6189 24.8147 25.7023 24.9664C25.8097 25.156 24.9272 26.4326 24.0566 27.3679C21.7431 29.8452 18.3683 31.0839 15.1961 30.6415C10.7838 30.0222 7.20616 26.698 6.0494 22.1604C5.67971 20.6816 5.67971 18.0273 6.0494 16.5358C6.38331 15.2592 7.19423 13.4897 7.95745 12.4153C9.44812 10.3298 11.7378 8.80039 14.2421 8.20633C15.4585 7.91562 18.2371 8.0041 19.37 8.37064ZM26.8949 16.0555C26.8472 16.3209 26.7875 16.6369 26.7518 16.7507C26.6921 16.9529 26.7756 16.9782 27.3957 16.9782H28.0993L28.2067 16.3083L28.314 15.651L28.8029 15.6131L29.3038 15.5752L29.1965 16.1187C29.0534 16.9403 29.0534 16.9782 29.4469 16.9782C29.7808 16.9782 29.8046 17.0035 29.8046 17.4838C29.8046 17.9893 29.8046 17.9893 29.3515 17.9893H28.8983L28.7791 18.7477C28.7075 19.1648 28.6837 19.544 28.7194 19.5693C28.7433 19.6072 28.946 19.6325 29.1726 19.6325C29.5423 19.6325 29.5661 19.6578 29.5661 20.0749C29.5661 20.5172 29.5661 20.5172 29.0414 20.5172C28.5525 20.5172 28.5048 20.5425 28.4452 20.8964C28.4094 21.0987 28.3378 21.4399 28.3021 21.6548C28.2424 21.9961 28.1947 22.034 27.7654 22.034H27.2884L27.3719 21.4273C27.4077 21.0987 27.4554 20.77 27.4673 20.7068C27.4673 20.631 27.193 20.5804 26.8233 20.5804H26.1674L26.0482 21.2756L25.917 21.9708L25.4042 22.0087C24.963 22.0466 24.9033 22.0214 24.951 21.8191C24.9868 21.6927 25.0584 21.3515 25.0941 21.0481C25.1776 20.5172 25.1776 20.5172 24.8079 20.5172C24.4621 20.5172 24.4383 20.4793 24.4383 20.0875C24.4383 19.6704 24.4621 19.6451 24.8795 19.6072L25.3326 19.5693L25.4638 18.773L25.595 17.9893H25.1299C24.6648 17.9893 24.6648 17.9893 24.7006 17.509C24.7364 17.054 24.7483 17.0414 25.2372 17.0035L25.7381 16.9655L25.8693 16.2704L26.0005 15.5878H26.4894H26.9664L26.8949 16.0555Z" fill="#FF5252"/>
</svg>
