<svg width="23" height="36" viewBox="0 0 23 36" fill="none" xmlns="http://www.w3.org/2000/svg">
<g clip-path="url(#clip0_142_6)">
<path d="M6.30417 35.5C9.25626 35.5 11.6522 32.8867 11.6522 29.6667V23.8333H6.30417C3.35208 23.8333 0.956177 26.4467 0.956177 29.6667C0.956177 32.8867 3.35208 35.5 6.30417 35.5Z" fill="#FF5252"/>
<path d="M0.956177 18C0.956177 14.78 3.35208 12.1667 6.30417 12.1667H11.6522V23.8333H6.30417C3.35208 23.8333 0.956177 21.22 0.956177 18Z" fill="#FF5252"/>
<path d="M0.956299 6.33333C0.956299 3.11333 3.3522 0.5 6.30429 0.5H11.6523V12.1667H6.30429C3.3522 12.1667 0.956299 9.55333 0.956299 6.33333Z" fill="#FF5252"/>
<path d="M11.6522 0.5H17.0002C19.9523 0.5 22.3482 3.11333 22.3482 6.33333C22.3482 9.55333 19.9523 12.1667 17.0002 12.1667H11.6522V0.5Z" fill="#FF5252"/>
<path d="M22.3482 18C22.3482 21.22 19.9523 23.8333 17.0002 23.8333C14.0481 23.8333 11.6522 21.22 11.6522 18C11.6522 14.78 14.0481 12.1667 17.0002 12.1667C19.9523 12.1667 22.3482 14.78 22.3482 18Z" fill="#FF5252"/>
</g>
<defs>
<clipPath id="clip0_142_6">
<rect width="21.3963" height="35" fill="white" transform="translate(0.954102 0.5)"/>
</clipPath>
</defs>
</svg>
