<svg width="35" height="38" viewBox="0 0 35 38" fill="none" xmlns="http://www.w3.org/2000/svg">
<path d="M17.0904 0.55368C10.6162 0.55368 9.27607 4.14856 9.27607 6.23047V10.1567H16.7182V10.957H5.62475C3.16825 10.957 0.345459 13.0389 0.345459 18.9595C0.345459 24.8801 3.16825 26.962 5.62475 26.962H10.0203V22.1605C10.0203 20.4006 11.3605 18.9595 12.9972 18.9595H21.9278C23.1924 18.9595 24.1604 17.9185 24.1604 16.5587V6.23047C24.1604 3.42959 21.7039 0.55368 17.0904 0.55368ZM13.7414 4.55494C14.5612 4.55494 15.2298 5.27392 15.2298 6.15545C15.2298 7.03697 14.5612 7.75595 13.7414 7.75595C12.9216 7.75595 12.2529 7.03697 12.2529 6.15545C12.2529 5.27392 12.9216 4.55494 13.7414 4.55494ZM24.9046 10.957V16.5587C24.9046 18.3187 23.5645 19.7597 21.9278 19.7597H12.9972C11.7326 19.7597 10.7645 20.8007 10.7645 22.1605V31.6885C10.7645 34.4894 13.221 37.3653 17.8346 37.3653C24.3087 37.3653 25.6489 33.7704 25.6489 31.6885V27.7623H18.2067V26.962H29.3002C31.7567 26.962 34.5795 24.8801 34.5795 18.9595C34.5795 13.0389 31.7567 10.957 29.3002 10.957H24.9046ZM21.1835 30.163C22.0034 30.163 22.672 30.882 22.672 31.7635C22.672 32.645 22.0034 33.364 21.1835 33.364C20.3637 33.364 19.6951 32.645 19.6951 31.7635C19.6951 30.882 20.3637 30.163 21.1835 30.163Z" fill="#FF5252"/>
</svg>
