<svg version="1.1" id="Layer_1" xmlns="http://www.w3.org/2000/svg" xmlns:xlink="http://www.w3.org/1999/xlink" x="0px" y="0px"
	 width="100%" viewBox="0 0 512 512" enable-background="new 0 0 512 512" xml:space="preserve">
<path fill="#FF5722" opacity="1.000000" stroke="none" 
	d="
M261.388123,512.780396 
	C258.629456,513.000000 256.258881,513.000000 253.444153,513.000000 
	C206.154541,504.339935 161.232147,488.417542 115.251404,476.489410 
	C102.522095,473.187256 89.882820,469.531036 77.229378,465.937286 
	C72.914330,464.711761 70.986885,462.499725 70.555809,457.977753 
	C68.377518,435.127411 66.612244,412.240753 64.454819,389.391052 
	C62.531757,369.023560 60.792957,348.639374 58.944016,328.266266 
	C57.410870,311.372864 56.019402,294.461670 54.511158,277.564758 
	C52.677567,257.022980 50.825226,236.481537 49.031094,215.936783 
	C47.540794,198.871277 45.922298,181.816620 44.519783,164.742432 
	C43.171837,148.332458 41.718357,131.928757 40.181084,115.535545 
	C38.597183,98.645134 37.183643,81.740143 35.644764,64.846191 
	C34.030514,47.124844 32.485931,29.396391 30.950581,11.667649 
	C30.654696,8.251068 29.767218,4.674564 32.688320,1.319070 
	C182.020889,1.000000 331.041779,1.000000 480.531342,1.000000 
	C484.178040,3.713339 483.463837,7.379131 483.155579,10.782803 
	C480.815582,36.621994 478.671783,62.478916 476.288757,88.313416 
	C473.691803,116.467445 471.175873,144.629669 468.696014,172.792923 
	C466.536987,197.312515 464.409637,221.837662 462.253418,246.357803 
	C459.776703,274.522247 457.215881,302.681274 454.680145,330.840912 
	C452.487549,355.190735 450.447388,379.557343 448.286621,403.910828 
	C446.654938,422.300537 445.191895,440.707458 443.291748,459.074554 
	C442.908905,462.775269 441.097778,464.609894 437.607635,465.627594 
	C415.388062,472.106812 393.036530,478.112396 370.761017,484.389587 
	C340.631592,492.879883 310.465240,501.238037 280.320953,509.675293 
	C274.246063,511.375610 267.965759,511.652740 261.388123,512.780396 
z"/>
<path fill="#FFFFFF" opacity="1.000000" stroke="none" 
	d="
M261.468658,513.000000 
	C269.460632,509.335999 278.531921,507.675903 287.319153,505.103943 
	C305.225830,499.862762 323.246307,495.009521 341.229797,490.032074 
	C369.067444,482.327240 396.914917,474.657776 424.754242,466.958923 
	C429.447144,465.661102 434.112030,464.261658 438.806824,462.970978 
	C440.330872,462.551910 440.896301,461.621735 441.008392,460.114502 
	C441.642700,451.584442 442.121704,443.035583 443.049194,434.536285 
	C444.491119,421.323273 445.239716,408.052063 446.791565,394.841278 
	C447.786835,386.368774 448.178894,377.794617 448.967560,369.272980 
	C450.283936,355.048950 451.153534,340.789124 452.892609,326.596680 
	C453.952271,317.948822 454.254547,309.210541 455.016205,300.523285 
	C456.205902,286.954498 457.446320,273.390320 458.779144,259.834045 
	C459.614777,251.334579 460.211700,242.788132 460.964050,234.264359 
	C462.220154,220.034149 463.139435,205.780304 464.884216,191.587173 
	C465.987610,182.611420 466.123840,173.520798 467.047150,164.517944 
	C468.436951,150.967026 469.276428,137.370605 470.785095,123.823730 
	C471.692841,115.672371 472.321198,107.451828 472.948517,99.254730 
	C474.038879,85.006699 475.556152,70.800362 476.784882,56.572609 
	C477.562958,47.562969 478.464081,38.543419 479.003906,29.504969 
	C479.553558,20.302061 481.088898,11.170301 481.000336,1.460484 
	C490.827942,1.000000 500.656952,1.077913 510.482910,0.937995 
	C512.591858,0.907965 513.454773,1.303639 513.019653,3.484962 
	C512.891846,4.125770 513.000000,4.813637 513.000000,5.479937 
	C513.000000,173.221024 512.987610,340.962097 513.085876,508.703125 
	C513.087891,512.173767 512.541748,513.115051 508.801300,513.108582 
	C426.513489,512.966431 344.225372,513.000000 261.468658,513.000000 
z"/>
<path fill="#FFFFFF" opacity="1.000000" stroke="none" 
	d="
M32.531342,1.000000 
	C33.499355,16.451559 35.388535,31.782137 36.788567,47.159813 
	C37.577988,55.830673 38.212013,64.532097 38.982643,73.215759 
	C40.230072,87.272179 41.133709,101.353470 42.877258,115.372337 
	C43.992729,124.341171 44.127449,133.427673 45.044041,142.426575 
	C46.423615,155.970840 47.306007,169.556686 48.765209,183.099411 
	C49.678837,191.578690 50.237812,200.132904 51.007984,208.648621 
	C52.293957,222.867615 53.871593,237.065155 54.862259,251.304031 
	C55.421741,259.345459 56.243313,267.349823 56.942902,275.372223 
	C58.197754,289.761963 59.497520,304.147980 60.768089,318.532501 
	C61.592045,327.860809 62.256851,337.240387 63.109482,346.572876 
	C64.317619,359.796722 65.241982,373.047302 66.790260,386.251434 
	C67.783043,394.718292 68.179245,403.288483 68.970032,411.805054 
	C70.289940,426.019989 70.908669,440.302338 72.982269,454.444214 
	C74.233116,462.974945 74.472771,462.862823 82.531151,465.031555 
	C104.457817,470.932648 126.336090,477.014404 148.218353,483.079376 
	C175.722015,490.702301 203.212936,498.371246 230.704086,506.039276 
	C238.044342,508.086639 245.365311,510.203125 252.847565,512.643921 
	C170.545364,513.000000 88.090622,512.955139 5.636341,513.127625 
	C1.344645,513.136597 0.902116,511.961884 0.904635,508.141235 
	C1.015117,340.566803 1.017228,172.992310 0.894181,5.417921 
	C0.891296,1.489504 1.962948,0.790995 5.580189,0.907457 
	C14.399538,1.191407 23.234192,1.000000 32.531342,1.000000 
z"/>
<path fill="#FAF9F9" opacity="1.000000" stroke="none" 
	d="
M290.000275,209.604507 
	C320.998474,209.604645 351.497101,209.681519 381.994354,209.513916 
	C386.090027,209.491409 387.468719,210.357101 387.061829,214.701660 
	C384.095306,246.377441 381.352783,278.074188 378.523773,309.762878 
	C376.465027,332.823822 374.289642,355.875061 372.408112,378.950348 
	C372.119690,382.487579 370.697968,383.594269 367.524872,384.467255 
	C331.922302,394.262421 296.358948,404.200745 260.811401,414.194183 
	C258.125732,414.949219 255.733536,414.976929 253.038528,414.217499 
	C217.497635,404.202271 181.942764,394.235321 146.339996,384.443085 
	C143.054916,383.539581 141.840729,382.239319 141.552063,378.831573 
	C139.218338,351.280670 136.717911,323.743469 134.136215,296.214508 
	C133.839539,293.051178 134.740646,292.206848 137.847290,292.232239 
	C154.011902,292.364410 170.179901,292.418762 186.342575,292.197784 
	C189.942993,292.148560 190.477371,293.860657 190.709778,296.625671 
	C191.784012,309.406555 193.075562,322.172180 193.915787,334.967773 
	C194.143967,338.442810 195.380981,339.844421 198.607422,340.697083 
	C216.940170,345.542023 235.229355,350.552765 253.515701,355.571381 
	C255.853271,356.212891 258.035858,356.193481 260.371246,355.553131 
	C278.658905,350.538971 296.940826,345.498444 315.291809,340.724915 
	C318.900330,339.786255 319.804199,338.026764 320.086487,334.547516 
	C321.783569,313.629730 323.636383,292.722382 325.726898,271.840546 
	C326.167908,267.435547 325.545990,265.936310 320.598663,265.951385 
	C259.436188,266.137543 198.272858,266.016754 137.110306,266.185883 
	C132.523254,266.198578 131.336548,264.802704 130.967606,260.440582 
	C127.556656,220.109222 123.905106,179.798218 120.337776,139.480042 
	C119.192673,126.537964 118.244415,113.575844 116.881615,100.657120 
	C116.425453,96.332901 117.316338,94.965027 121.978256,95.017372 
	C145.140625,95.277390 168.307495,95.135918 191.472778,95.135918 
	C258.135468,95.135910 324.798279,95.196487 391.460480,95.014282 
	C396.475861,95.000572 397.579315,96.333115 397.085449,101.122604 
	C395.462585,116.861267 394.211121,132.639130 392.928131,148.410980 
	C392.721497,150.951340 391.747498,152.025085 389.210999,151.796829 
	C387.888550,151.677841 386.546387,151.779007 385.213135,151.779007 
	C318.050476,151.779221 250.887680,151.836472 183.725479,151.661972 
	C178.770599,151.649109 177.625031,152.833496 178.156723,157.721497 
	C179.831558,173.118515 181.118362,188.561569 182.291672,204.006821 
	C182.615601,208.270813 183.916367,209.757248 188.509247,209.726410 
	C222.171661,209.500381 255.836304,209.604523 290.000275,209.604507 
z"/>
</svg>