<?xml version="1.0" standalone="no"?>
<!DOCTYPE svg PUBLIC "-//W3C//DTD SVG 20010904//EN"
 "http://www.w3.org/TR/2001/REC-SVG-20010904/DTD/svg10.dtd">
<svg version="1.0" xmlns="http://www.w3.org/2000/svg"
 width="1024.000000pt" height="1024.000000pt" viewBox="0 0 1024.000000 1024.000000"
 preserveAspectRatio="xMidYMid meet">

<g transform="translate(0.000000,1024.000000) scale(0.100000,-0.100000)"
fill="#000000" stroke="none">
<path d="M7230 5520 c-540 -77 -919 -435 -996 -940 -44 -297 28 -621 196 -871
144 -214 422 -398 930 -614 382 -163 511 -234 603 -334 76 -82 92 -126 92
-256 0 -100 -3 -115 -28 -167 -85 -172 -310 -268 -602 -255 -174 8 -312 54
-450 152 -75 53 -194 177 -264 277 l-55 77 -56 -32 c-30 -18 -185 -106 -342
-197 l-287 -165 40 -75 c83 -156 302 -395 454 -496 210 -140 471 -235 755
-275 150 -22 478 -17 620 9 547 100 900 380 1025 816 68 238 52 564 -39 808
-125 334 -456 607 -1028 846 -417 176 -529 233 -622 321 -72 69 -94 112 -112
215 -37 208 69 365 281 421 249 65 492 -58 650 -329 9 -15 49 8 325 184 173
112 321 208 328 214 25 24 -172 282 -304 397 -208 183 -467 271 -829 283 -116
4 -181 0 -285 -14z"/>
<path d="M4667 3968 c-3 -1643 -1 -1578 -57 -1688 -84 -165 -305 -237 -538
-176 -113 30 -239 146 -337 310 -32 53 -62 96 -67 96 -14 0 -662 -399 -672
-414 -12 -17 82 -177 162 -278 161 -201 351 -333 596 -413 173 -56 274 -70
506 -69 241 0 388 22 535 81 449 178 679 521 713 1063 4 74 6 780 4 1568 l-4
1432 -419 0 -418 0 -4 -1512z"/>
</g>
</svg>
