<svg width="182" height="56" viewBox="0 0 182 56" fill="none" xmlns="http://www.w3.org/2000/svg">
<path d="M24.48 32.7444V41.8644H18.96V14.6644H29.52C35.92 14.6644 39.12 17.651 39.12 23.6244C39.12 27.171 37.7867 29.7844 35.12 31.4644L39 41.8644H32.96L29.8 32.7444H24.48ZM29.6 28.0244C30.9067 28.0244 31.88 27.6244 32.52 26.8244C33.16 26.0244 33.48 24.971 33.48 23.6644C33.48 22.3577 33.1333 21.3177 32.44 20.5444C31.7733 19.771 30.8 19.3844 29.52 19.3844H24.48V28.0244H29.6ZM47.3722 34.1444C47.3989 35.371 47.7189 36.2644 48.3322 36.8244C48.9722 37.3577 49.8789 37.6244 51.0522 37.6244C53.5322 37.6244 55.7455 37.5444 57.6922 37.3844L58.8122 37.2644L58.8922 41.2244C55.8255 41.971 53.0522 42.3444 50.5722 42.3444C47.5589 42.3444 45.3722 41.5444 44.0122 39.9444C42.6522 38.3444 41.9722 35.7444 41.9722 32.1444C41.9722 24.971 44.9189 21.3844 50.8122 21.3844C56.6255 21.3844 59.5322 24.3977 59.5322 30.4244L59.1322 34.1444H47.3722ZM54.2522 30.0644C54.2522 28.4644 53.9989 27.3577 53.4922 26.7444C52.9855 26.1044 52.0922 25.7844 50.8122 25.7844C49.5589 25.7844 48.6655 26.1177 48.1322 26.7844C47.6255 27.4244 47.3589 28.5177 47.3322 30.0644H54.2522ZM62.5228 26.6644V21.8644H77.3628V26.6644L68.9628 37.0644H77.3628V41.8644H62.5228V37.0644L70.9228 26.6644H62.5228ZM85.9269 34.1444C85.9535 35.371 86.2735 36.2644 86.8869 36.8244C87.5269 37.3577 88.4335 37.6244 89.6069 37.6244C92.0869 37.6244 94.3002 37.5444 96.2469 37.3844L97.3669 37.2644L97.4469 41.2244C94.3802 41.971 91.6069 42.3444 89.1269 42.3444C86.1135 42.3444 83.9269 41.5444 82.5669 39.9444C81.2069 38.3444 80.5269 35.7444 80.5269 32.1444C80.5269 24.971 83.4735 21.3844 89.3669 21.3844C95.1802 21.3844 98.0869 24.3977 98.0869 30.4244L97.6869 34.1444H85.9269ZM92.8069 30.0644C92.8069 28.4644 92.5535 27.3577 92.0469 26.7444C91.5402 26.1044 90.6469 25.7844 89.3669 25.7844C88.1135 25.7844 87.2202 26.1177 86.6869 26.7844C86.1802 27.4244 85.9135 28.5177 85.8869 30.0644H92.8069ZM107.278 41.8644H101.918V21.8644H107.238V22.9844C109.051 21.9177 110.718 21.3844 112.238 21.3844C114.904 21.3844 116.744 22.171 117.758 23.7444C118.771 25.3177 119.278 27.7444 119.278 31.0244V41.8644H113.918V31.1844C113.918 29.4777 113.718 28.2244 113.318 27.4244C112.918 26.5977 112.118 26.1844 110.918 26.1844C109.824 26.1844 108.771 26.371 107.758 26.7444L107.278 26.9044V41.8644ZM141.027 13.8644V41.8644H135.707V41.0244C133.84 41.9044 132.227 42.3444 130.867 42.3444C127.96 42.3444 125.934 41.5044 124.787 39.8244C123.64 38.1444 123.067 35.491 123.067 31.8644C123.067 28.211 123.747 25.5577 125.107 23.9044C126.494 22.2244 128.574 21.3844 131.347 21.3844C132.2 21.3844 133.387 21.5177 134.907 21.7844L135.667 21.9444V13.8644H141.027ZM135.107 37.0644L135.667 36.9444V26.4244C134.2 26.1577 132.894 26.0244 131.747 26.0244C129.587 26.0244 128.507 27.9444 128.507 31.7844C128.507 33.8644 128.747 35.3444 129.227 36.2244C129.707 37.1044 130.494 37.5444 131.587 37.5444C132.707 37.5444 133.88 37.3844 135.107 37.0644ZM150.38 34.1444C150.407 35.371 150.727 36.2644 151.34 36.8244C151.98 37.3577 152.887 37.6244 154.06 37.6244C156.54 37.6244 158.753 37.5444 160.7 37.3844L161.82 37.2644L161.9 41.2244C158.833 41.971 156.06 42.3444 153.58 42.3444C150.567 42.3444 148.38 41.5444 147.02 39.9444C145.66 38.3444 144.98 35.7444 144.98 32.1444C144.98 24.971 147.927 21.3844 153.82 21.3844C159.633 21.3844 162.54 24.3977 162.54 30.4244L162.14 34.1444H150.38ZM157.26 30.0644C157.26 28.4644 157.007 27.3577 156.5 26.7444C155.993 26.1044 155.1 25.7844 153.82 25.7844C152.567 25.7844 151.673 26.1177 151.14 26.7844C150.633 27.4244 150.367 28.5177 150.34 30.0644H157.26Z" fill="white"/>
<line y1="3.72424" x2="20" y2="3.72424" stroke="#FF5252" stroke-width="7"/>
<line x1="3.56897" y1="1.30518" x2="3.56897" y2="18.2543" stroke="#FF5252" stroke-width="7"/>
<line x1="182" y1="52.2147" x2="162" y2="52.2147" stroke="#FF5252" stroke-width="7"/>
<line x1="178.431" y1="37.7457" x2="178.431" y2="54.6949" stroke="#FF5252" stroke-width="7"/>
</svg>
