<?xml version="1.0" standalone="no"?>
<!DOCTYPE svg PUBLIC "-//W3C//DTD SVG 20010904//EN"
 "http://www.w3.org/TR/2001/REC-SVG-20010904/DTD/svg10.dtd">
<svg version="1.0" xmlns="http://www.w3.org/2000/svg"
 width="227.000000pt" height="256.000000pt" viewBox="0 0 227.000000 256.000000"
 preserveAspectRatio="xMidYMid meet">

<g transform="translate(0.000000,256.000000) scale(0.100000,-0.100000)"
fill="#000000" stroke="none">
<path d="M1 2193 c1 -203 4 -354 9 -337 18 77 52 109 200 194 41 23 89 50 105
60 17 10 73 42 125 72 52 30 213 123 357 206 144 83 276 155 295 161 22 6
-153 9 -529 10 l-563 1 1 -367z"/>
<path d="M1175 2551 c17 -4 149 -76 295 -161 407 -235 518 -299 605 -349 138
-79 162 -102 186 -181 4 -14 8 138 8 338 l1 362 -562 -1 c-310 -1 -549 -4
-533 -8z"/>
<path d="M1105 2391 c-6 -5 -30 -20 -55 -34 -25 -13 -105 -59 -177 -101 -73
-42 -191 -110 -263 -151 -71 -41 -188 -108 -260 -149 -71 -41 -143 -84 -160
-96 l-30 -21 0 -559 0 -558 93 -55 c175 -104 225 -127 277 -127 59 0 94 14
117 49 17 24 18 73 23 591 l5 565 78 3 77 3 0 -571 c0 -609 -2 -637 -49 -700
-53 -73 -114 -100 -221 -100 -88 0 -137 16 -266 86 -238 130 -264 152 -285
238 -4 17 -7 -134 -8 -336 l-1 -368 1135 0 1135 0 -1 363 c0 206 -4 350 -9
335 -14 -47 -48 -94 -87 -120 -34 -22 -69 -43 -228 -133 -22 -13 -80 -46 -130
-75 -49 -29 -108 -63 -130 -75 -22 -13 -80 -46 -130 -75 -49 -29 -106 -61
-125 -72 -19 -11 -60 -35 -91 -54 -166 -100 -209 -104 -341 -30 -240 133 -318
186 -276 186 7 0 41 14 76 31 63 30 89 31 122 5 20 -17 206 -126 213 -126 4 0
46 24 95 53 49 28 144 84 211 122 67 39 176 102 244 141 67 39 187 108 267
155 80 46 148 88 152 94 4 5 7 260 5 565 l-2 554 -75 45 c-41 24 -138 80 -215
124 -182 104 -184 105 -290 167 -49 29 -108 62 -130 75 -22 12 -88 50 -146 84
-107 61 -127 69 -144 52z m464 -626 c146 -31 226 -96 262 -217 30 -98 28 -102
-58 -106 l-72 -3 -29 64 c-34 75 -67 99 -160 117 -88 18 -235 9 -294 -18 -75
-33 -103 -118 -55 -166 28 -28 156 -60 302 -76 105 -12 240 -43 288 -67 48
-24 105 -83 118 -120 6 -20 12 -68 11 -106 0 -133 -81 -232 -222 -277 -248
-79 -559 -25 -666 115 -30 40 -54 113 -54 167 l0 38 79 0 79 0 7 -38 c10 -64
40 -101 103 -130 50 -23 72 -27 188 -30 196 -6 290 29 314 117 28 104 -49 149
-300 176 -269 29 -378 77 -424 187 -34 80 -11 214 47 276 36 38 128 86 192 98
86 17 261 17 344 -1z"/>
</g>
</svg>
